<svg width="25" height="24" viewBox="0 0 25 24" fill="none" xmlns="http://www.w3.org/2000/svg">
<path d="M20.8334 7.04C20.8334 3.01 19.8934 2 16.1134 2H8.55337C4.77337 2 3.83337 3.01 3.83337 7.04V18.3C3.83337 20.96 5.29337 21.59 7.06337 19.69L7.07337 19.68C7.89337 18.81 9.14337 18.88 9.85337 19.83L10.8634 21.18C11.6734 22.25 12.9834 22.25 13.7934 21.18L14.8034 19.83C15.5234 18.87 16.7734 18.8 17.5934 19.68C19.3734 21.58 20.8234 20.95 20.8234 18.29V11M8.33337 7H16.3334M9.33337 11H15.3334" stroke="#272727" stroke-opacity="0.5" stroke-width="1.5" stroke-linecap="round" stroke-linejoin="round"/>
</svg>
